# MagicaVoxel @ Ephtracy

# group
g _17_Model_Book

# material
mtllib _17_Model_Book.mtl
usemtl palette

# normals
vn -1 0 0
vn 1 0 0
vn 0 0 1
vn 0 0 -1
vn 0 -1 0
vn 0 1 0

# texcoords
vt 0.00585938 0.5
vt 0.0136719 0.5
vt 0.0839844 0.5
vt 0.365234 0.5

# verts
v -2.5 0 10.5
v -2.5 0 -10.5
v -2.5 2 8.5
v -2.5 2 -8.5
v -2.5 3 7.5
v -2.5 3 -7.5
v -2.5 20 4.5
v -2.5 20 -4.5
v -2.5 21 4.5
v -2.5 21 -4.5
v -2.5 22 5.5
v -2.5 22 -5.5
v -2.5 24 5.5
v -2.5 24 -5.5
v -2.5 27 7.5
v -2.5 27 -7.5
v -2.5 28 8.5
v -2.5 28 -8.5
v -2.5 30 10.5
v -2.5 30 -10.5
v 1.5 0 10.5
v 1.5 0 9.5
v 1.5 30 10.5
v 1.5 30 9.5
v -1.5 0 10.5
v -1.5 0 9.5
v -1.5 30 10.5
v -1.5 30 9.5
v 2.5 0 10.5
v 2.5 0 -10.5
v 2.5 30 10.5
v 2.5 30 -10.5
v -2.5 0 10.5
v -2.5 30 10.5
v -1.5 0 10.5
v -1.5 30 10.5
v 1.5 0 10.5
v 1.5 30 10.5
v 2.5 0 10.5
v 2.5 30 10.5
v -1.5 0 9.5
v -1.5 30 9.5
v 1.5 0 9.5
v 1.5 30 9.5
v -2.5 0 -10.5
v -2.5 30 -10.5
v 2.5 0 -10.5
v 2.5 30 -10.5
v -2.5 0 10.5
v -1.5 0 10.5
v 1.5 0 10.5
v 2.5 0 10.5
v -1.5 0 9.5
v 1.5 0 9.5
v -1.5 0 -9.5
v 1.5 0 -9.5
v -2.5 0 -10.5
v 2.5 0 -10.5
v -2.5 30 10.5
v -1.5 30 10.5
v 1.5 30 10.5
v 2.5 30 10.5
v -1.5 30 9.5
v 1.5 30 9.5
v -1.5 30 -9.5
v 1.5 30 -9.5
v -2.5 30 -10.5
v 2.5 30 -10.5

# faces
f 3/4/1 2/4/1 1/4/1
f 4/4/1 2/4/1 3/4/1
f 5/3/1 4/3/1 3/3/1
f 6/3/1 4/3/1 5/3/1
f 7/4/1 6/4/1 5/4/1
f 8/4/1 6/4/1 7/4/1
f 9/4/1 7/4/1 5/4/1
f 9/2/1 8/2/1 7/2/1
f 10/4/1 6/4/1 8/4/1
f 10/2/1 8/2/1 9/2/1
f 11/4/1 9/4/1 5/4/1
f 11/4/1 10/4/1 9/4/1
f 12/4/1 6/4/1 10/4/1
f 12/4/1 10/4/1 11/4/1
f 13/4/1 11/4/1 5/4/1
f 13/2/1 12/2/1 11/2/1
f 14/4/1 6/4/1 12/4/1
f 14/2/1 12/2/1 13/2/1
f 15/3/1 5/3/1 3/3/1
f 15/4/1 13/4/1 5/4/1
f 15/4/1 14/4/1 13/4/1
f 16/4/1 6/4/1 14/4/1
f 16/4/1 14/4/1 15/4/1
f 16/3/1 4/3/1 6/3/1
f 17/4/1 3/4/1 1/4/1
f 17/3/1 15/3/1 3/3/1
f 17/3/1 16/3/1 15/3/1
f 18/3/1 4/3/1 16/3/1
f 18/3/1 16/3/1 17/3/1
f 18/4/1 2/4/1 4/4/1
f 19/4/1 17/4/1 1/4/1
f 19/4/1 18/4/1 17/4/1
f 20/4/1 2/4/1 18/4/1
f 20/4/1 18/4/1 19/4/1
f 23/4/1 22/4/1 21/4/1
f 24/4/1 22/4/1 23/4/1
f 25/4/2 26/4/2 27/4/2
f 27/4/2 26/4/2 28/4/2
f 29/4/2 30/4/2 31/4/2
f 31/4/2 30/4/2 32/4/2
f 35/4/3 34/4/3 33/4/3
f 36/4/3 34/4/3 35/4/3
f 39/4/3 38/4/3 37/4/3
f 40/4/3 38/4/3 39/4/3
f 43/1/3 42/1/3 41/1/3
f 44/1/3 42/1/3 43/1/3
f 45/4/4 46/4/4 47/4/4
f 47/4/4 46/4/4 48/4/4
f 53/4/5 50/4/5 49/4/5
f 54/4/5 52/4/5 51/4/5
f 55/4/5 53/4/5 49/4/5
f 55/1/5 54/1/5 53/1/5
f 56/4/5 52/4/5 54/4/5
f 56/1/5 54/1/5 55/1/5
f 57/4/5 55/4/5 49/4/5
f 57/4/5 56/4/5 55/4/5
f 58/4/5 52/4/5 56/4/5
f 58/4/5 56/4/5 57/4/5
f 59/4/6 60/4/6 63/4/6
f 61/4/6 62/4/6 64/4/6
f 59/4/6 63/4/6 65/4/6
f 63/1/6 64/1/6 65/1/6
f 64/4/6 62/4/6 66/4/6
f 65/1/6 64/1/6 66/1/6
f 59/4/6 65/4/6 67/4/6
f 65/4/6 66/4/6 67/4/6
f 66/4/6 62/4/6 68/4/6
f 67/4/6 66/4/6 68/4/6
